<?xml version="1.0" standalone="no"?><!DOCTYPE svg PUBLIC "-//W3C//DTD SVG 1.1//EN" "http://www.w3.org/Graphics/SVG/1.1/DTD/svg11.dtd"><svg t="1700471185449" class="icon" viewBox="0 0 1024 1024" version="1.1" xmlns="http://www.w3.org/2000/svg" p-id="9265" xmlns:xlink="http://www.w3.org/1999/xlink" width="200" height="200"><path d="M540.444444 3.754667c315.790222 0 496.071111 239.331556 478.890667 492.088889-11.150222 163.84-79.644444 286.947556-179.086222 356.238222a28.444444 28.444444 0 0 1-32.540445-46.705778c85.219556-59.278222 144.896-166.684444 154.851556-313.344 15.075556-222.378667-142.336-431.388444-422.115556-431.388444-166.798222 0-315.733333 124.586667-363.861333 286.321777a356.750222 356.750222 0 0 0-10.126222 52.565334l-2.844445 23.779555-2.446222 26.908445c-0.739556 9.443556-1.479111 19.456-2.104889 29.923555a28.444444 28.444444 0 0 1-3.640889 12.174222l-2.332444 3.584-78.165333 99.84a28.444444 28.444444 0 0 0 9.955555 43.121778l4.835556 1.820445 91.818666 25.486222a28.444444 28.444444 0 0 1 20.195556 21.162667l0.625778 5.233777 8.931555 243.2a28.444444 28.444444 0 0 0 23.438223 26.965334l4.949333 0.398222H408.462222a28.444444 28.444444 0 0 1 5.12 56.433778l-5.12 0.455111H239.672889a85.333333 85.333333 0 0 1-84.593778-74.183111l-0.682667-7.964445-8.135111-222.492444-71.736889-19.911111A85.333333 85.333333 0 0 1 13.255111 598.471111l1.820445-7.964444a85.333333 85.333333 0 0 1 10.24-22.926223l4.778666-6.883555 72.704-93.013333 0.682667-8.874667c3.754667-51.996444 9.102222-91.591111 16.156444-119.239111l2.446223-8.817778C177.038222 146.033778 347.022222 3.754667 540.444444 3.754667zM461.084444 265.671111a56.888889 56.888889 0 0 1 30.151112 26.794667l2.844444 6.371555 131.982222 351.800889a28.444444 28.444444 0 0 1-51.029333 24.576l-2.275556-4.608-50.403555-134.257778c-21.560889 47.786667-66.446222 47.217778-97.109334 30.321778l-5.233777-3.185778c-18.261333-11.889778-40.96-11.776-67.982223 0.341334l-5.859555 2.844444-39.651556 104.106667a28.444444 28.444444 0 0 1-54.556444-15.36l1.422222-4.949333 134.257778-351.971556a56.888889 56.888889 0 0 1 73.443555-32.824889z m295.708445-3.242667a28.444444 28.444444 0 0 1 27.989333 23.324445l0.455111 5.12v369.777778a28.444444 28.444444 0 0 1-56.433777 5.12l-0.455112-5.12v-369.777778a28.444444 28.444444 0 0 1 28.444445-28.444445z m-315.960889 56.376889l-81.635556 213.902223c35.953778-29.582222 54.158222-34.588444 88.007112-17.351112 21.674667 11.036444 42.040889 11.377778 61.041777 1.080889l5.404445-3.413333-72.817778-194.218667z" fill="#e6e6e6" p-id="9266"></path></svg>