<?xml version="1.0" standalone="no"?><!DOCTYPE svg PUBLIC "-//W3C//DTD SVG 1.1//EN" "http://www.w3.org/Graphics/SVG/1.1/DTD/svg11.dtd"><svg t="1683464804222" class="icon" viewBox="0 0 1024 1024" version="1.1" xmlns="http://www.w3.org/2000/svg" p-id="4277" width="200" height="200" xmlns:xlink="http://www.w3.org/1999/xlink"><path d="M1001.172979 15.015883a63.871501 63.871501 0 0 0-52.255592-14.015891l-544.05975 95.99925A63.935501 63.935501 0 0 0 351.99405 160.00675v549.435707C319.514304 685.890641 277.370633 672.00275 230.586999 672.00275c-27.199788 0-54.399575 4.511965-80.927368 13.311896-60.735526 20.255842-109.439145 60.863525-133.630956 111.487129-18.687854 39.135694-21.087835 81.695362-6.847946 119.871063C33.532538 981.888329 102.715998 1024 185.435352 1024c27.199788 0 54.399575-4.447965 80.895368-13.311896 60.703526-20.191842 109.407145-60.799525 133.598956-111.35913A158.814759 158.814759 0 0 0 415.385555 832.0015h0.575996V320.0055c3.679971 0 7.423942-0.319998 11.135913-0.927993l532.955836-94.047265V613.443207c-32.511746-23.551816-74.623417-37.439708-121.439051-37.439707-27.199788 0-54.431575 4.511965-80.927368 13.311896-60.735526 20.255842-109.439145 60.863525-133.566957 111.487129-18.687854 39.135694-21.119835 81.695362-6.879946 119.871063C641.623788 885.889079 710.743248 928.00075 793.494601 928.00075a254.71801 254.71801 0 0 0 80.927368-13.311896c60.671526-20.191842 109.375146-60.799525 133.566956-111.35913A158.846759 158.846759 0 0 0 1023.476804 736.00225h0.575996V64.0075c0-18.879853-8.383935-36.863712-22.879821-48.991617zM246.042878 950.016578c-76.671401 25.5678-155.934782 0.575996-176.926618-55.679565-21.055836-56.31956 24.031812-122.687042 100.671214-148.254842 76.671401-25.5678 155.934782-0.639995 176.926618 55.679565 21.087835 56.28756-23.999813 122.687042-100.671214 148.254842z m606.875259-95.99925c-76.735401 25.5678-155.998781 0.575996-176.990617-55.679565-21.055836-56.31956 24.063812-122.687042 100.671213-148.254842 76.735401-25.5678 155.998781-0.639995 176.990617 55.679565 21.087835 56.28756-23.967813 122.687042-100.671213 148.254842zM958.74131 160.00675L414.681561 256.006V160.00675L958.74131 64.0075v95.99925z" fill="#2c2c2c" p-id="4278"></path></svg>